<svg width="166" height="173" viewBox="0 0 166 173" fill="none" xmlns="http://www.w3.org/2000/svg">
<path d="M62.5553 0.823826C67.9674 1.72077 74.2455 4.23221 78.9857 6.96366C101.734 20.0712 105.181 47.3343 111.126 69.937C113.735 79.9745 117.189 89.8039 121.451 99.323C132.269 122.925 149.014 143.233 165.869 163.082C156.859 172.037 143.945 174.185 131.617 170.805C125.933 162.852 121.925 156.76 114.593 150.051C103.861 139.753 76.3711 126.176 61.9564 119.957C45.3367 112.641 24.5435 107.651 12.1724 93.5189C-5.88779 72.8832 10.926 53.5936 26.7153 40.3083C12.7669 33.9098 7.44379 25.1212 -6.68222e-07 12.7857L23.4215 6.13346C37.5299 2.04437 47.5548 -1.71161 62.5553 0.823826ZM94.2136 106.359C90.914 85.3932 78.2811 42.4343 52.796 37.3199C38.664 35.4981 30.1201 42.0043 28.3949 55.5204C25.5861 77.5336 63.8053 91.9339 79.9158 99.3052C84.757 101.608 89.4817 103.832 94.2136 106.359Z" fill="url(#paint0_linear_645_159)"/>
<defs>
<linearGradient id="paint0_linear_645_159" x1="21.5539" y1="47.0992" x2="171.673" y2="172.478" gradientUnits="userSpaceOnUse">
<stop offset="0.0144231" stop-color="#8269A2"/>
<stop offset="0.269231" stop-color="#27AEF7"/>
<stop offset="0.942308" stop-color="#19387B"/>
</linearGradient>
</defs>
</svg>
