<svg width="158" height="83" viewBox="0 0 158 83" fill="none" xmlns="http://www.w3.org/2000/svg">
<g filter="url(#filter0_d_388_34)">
<path d="M82.7013 50.0992C81.3484 50.0992 80.1458 49.905 79.0935 49.5168C78.0513 49.1187 77.1994 48.5463 76.538 47.7997C75.8866 47.0531 75.4757 46.1572 75.3053 45.112L79.5294 44.5446C79.7198 45.3012 80.0856 45.8735 80.6268 46.2618C81.168 46.65 81.8895 46.8441 82.7915 46.8441C83.6433 46.8441 84.3148 46.6848 84.8058 46.3663C85.2969 46.0378 85.5424 45.6247 85.5424 45.127C85.5424 44.6989 85.362 44.3505 85.0012 44.0818C84.6505 43.803 84.1193 43.589 83.4078 43.4397L80.5366 42.8723C78.9332 42.5438 77.7306 41.9864 76.9288 41.2C76.1271 40.4136 75.7262 39.3982 75.7262 38.1539C75.7262 37.1087 76.0119 36.2029 76.5831 35.4364C77.1643 34.6699 77.9761 34.0776 79.0183 33.6596C80.0706 33.2415 81.2983 33.0324 82.7013 33.0324C84.0442 33.0324 85.2067 33.2216 86.1888 33.5998C87.1709 33.9781 87.9576 34.5156 88.5489 35.2124C89.1502 35.9092 89.531 36.7305 89.6913 37.6761L85.6777 38.2286C85.5374 37.6413 85.2217 37.1635 84.7307 36.7952C84.2496 36.4169 83.6032 36.2278 82.7915 36.2278C82.0399 36.2278 81.4185 36.3871 80.9275 36.7056C80.4464 37.0142 80.2059 37.4173 80.2059 37.915C80.2059 38.3331 80.3713 38.6865 80.702 38.9752C81.0327 39.2539 81.5738 39.4679 82.3255 39.6172L85.3319 40.2145C86.9554 40.533 88.158 41.0606 88.9397 41.7972C89.7314 42.5339 90.1273 43.4945 90.1273 44.679C90.1273 45.764 89.8116 46.7147 89.1802 47.5309C88.5489 48.3372 87.672 48.9693 86.5496 49.4272C85.4372 49.8752 84.1544 50.0992 82.7013 50.0992Z" fill="url(#paint0_linear_388_34)"/>
<path d="M97.7638 50.0693C96.7015 50.0693 95.7494 49.8851 94.9076 49.5168C94.0658 49.1485 93.4044 48.601 92.9233 47.8744C92.4423 47.1377 92.2018 46.2269 92.2018 45.1419C92.2018 44.2161 92.3721 43.4447 92.7129 42.8275C93.0536 42.2103 93.5196 41.7126 94.1109 41.3344C94.7022 40.9561 95.3736 40.6724 96.1252 40.4833C96.8869 40.2842 97.6836 40.1448 98.5154 40.0652C99.4875 39.9656 100.269 39.8761 100.86 39.7964C101.452 39.7068 101.883 39.5724 102.153 39.3933C102.424 39.2141 102.559 38.9453 102.559 38.587V38.5123C102.559 38.0544 102.454 37.6662 102.243 37.3476C102.043 37.0192 101.747 36.7703 101.356 36.6011C100.966 36.4219 100.49 36.3323 99.9284 36.3323C99.3572 36.3323 98.8561 36.4219 98.4252 36.6011C98.0043 36.7703 97.6585 37.0042 97.3879 37.3029C97.1274 37.5915 96.942 37.92 96.8317 38.2883L92.6978 37.7657C92.9283 36.7703 93.3693 35.9192 94.0207 35.2124C94.6721 34.5057 95.5039 33.9682 96.5161 33.5998C97.5282 33.2216 98.6807 33.0324 99.9735 33.0324C100.916 33.0324 101.807 33.1419 102.649 33.3609C103.501 33.5799 104.258 33.9184 104.919 34.3763C105.581 34.8342 106.097 35.4165 106.468 36.1233C106.848 36.8201 107.039 37.6562 107.039 38.6318V49.7557H102.755V47.4563H102.619C102.349 47.9739 101.988 48.4318 101.537 48.83C101.096 49.2182 100.565 49.5218 99.9435 49.7408C99.3221 49.9598 98.5955 50.0693 97.7638 50.0693ZM99.0265 46.9486C99.738 46.9486 100.359 46.8092 100.89 46.5305C101.422 46.2518 101.838 45.8785 102.138 45.4107C102.439 44.9428 102.589 44.4152 102.589 43.8279V42.0809C102.449 42.1606 102.253 42.2402 102.003 42.3198C101.752 42.3995 101.467 42.4692 101.146 42.5289C100.825 42.5886 100.5 42.6434 100.169 42.6931C99.8482 42.7429 99.5526 42.7877 99.282 42.8275C98.7409 42.9071 98.2598 43.0366 97.8389 43.2157C97.418 43.385 97.0923 43.6189 96.8618 43.9175C96.6313 44.2062 96.5161 44.5695 96.5161 45.0075C96.5161 45.4256 96.6213 45.779 96.8317 46.0676C97.0522 46.3563 97.3479 46.5753 97.7187 46.7246C98.0995 46.8739 98.5354 46.9486 99.0265 46.9486Z" fill="url(#paint1_linear_388_34)"/>
<path d="M115.201 40.2892V49.7557H110.722V27.5078H115.141V37.4223H114.675C115.126 36.0287 115.803 34.9487 116.705 34.1822C117.617 33.4157 118.784 33.0324 120.207 33.0324C121.36 33.0324 122.367 33.2813 123.229 33.779C124.091 34.2767 124.757 34.9934 125.228 35.9292C125.709 36.8649 125.95 37.9897 125.95 39.3037V49.7557H121.455V40.095C121.455 39.0498 121.189 38.2386 120.658 37.6612C120.127 37.0739 119.385 36.7803 118.433 36.7803C117.802 36.7803 117.241 36.9196 116.75 37.1983C116.269 37.4671 115.888 37.8603 115.607 38.3779C115.337 38.8955 115.201 39.5326 115.201 40.2892Z" fill="url(#paint2_linear_388_34)"/>
<path d="M129.632 49.7557V33.2713H134.112V49.7557H129.632ZM131.872 31.1361C131.181 31.1361 130.59 30.9122 130.098 30.4642C129.617 30.0163 129.377 29.4688 129.377 28.8218C129.377 28.1747 129.617 27.6272 130.098 27.1793C130.59 26.7313 131.181 26.5074 131.872 26.5074C132.564 26.5074 133.15 26.7313 133.631 27.1793C134.112 27.6272 134.353 28.1747 134.353 28.8218C134.353 29.4688 134.112 30.0163 133.631 30.4642C133.15 30.9122 132.564 31.1361 131.872 31.1361Z" fill="url(#paint3_linear_388_34)"/>
<path d="M147.145 50.0394C146.283 50.0394 145.537 49.9001 144.905 49.6213C144.284 49.3327 143.768 48.9693 143.357 48.5313C142.946 48.0834 142.625 47.6205 142.395 47.1427H142.215V49.7557H137.81V27.5078H142.29V35.9441H142.41C142.651 35.4663 142.971 35.0084 143.372 34.5704C143.773 34.1224 144.284 33.7541 144.905 33.4655C145.527 33.1768 146.283 33.0324 147.175 33.0324C148.448 33.0324 149.596 33.3609 150.618 34.0179C151.65 34.665 152.472 35.6206 153.083 36.8848C153.694 38.139 154 39.6869 154 41.5285C154 43.3402 153.699 44.8781 153.098 46.1423C152.507 47.4065 151.695 48.3721 150.663 49.039C149.631 49.706 148.458 50.0394 147.145 50.0394ZM145.807 46.4559C146.589 46.4559 147.245 46.2518 147.777 45.8437C148.308 45.4256 148.709 44.8482 148.979 44.1116C149.26 43.365 149.4 42.499 149.4 41.5135C149.4 40.538 149.26 39.6819 148.979 38.9453C148.709 38.2087 148.308 37.6363 147.777 37.2282C147.245 36.8201 146.589 36.616 145.807 36.616C145.046 36.616 144.389 36.8201 143.838 37.2282C143.297 37.6264 142.881 38.1938 142.59 38.9304C142.31 39.6571 142.169 40.5181 142.169 41.5135C142.169 42.509 142.315 43.375 142.605 44.1116C142.896 44.8482 143.312 45.4256 143.853 45.8437C144.404 46.2518 145.056 46.4559 145.807 46.4559Z" fill="url(#paint4_linear_388_34)"/>
<path d="M11.8645 50.6329C12.3342 51.4345 12.9375 51.9271 13.6838 52.0884C14.9797 52.3794 16.7187 51.9127 19.5698 49.8962C24.2836 46.5663 25.2931 44.1936 28.3454 43.5756C28.8918 43.4686 30.1778 43.2219 31.7099 43.6607C32.7903 43.9749 33.5797 44.4997 34.0452 44.8603C35.0999 42.3342 34.8054 39.531 33.2265 37.5557C31.8698 35.8581 30.0297 35.3403 29.3379 35.1866C27.5617 35.0203 24.4939 35.0041 21.267 36.5256C19.0099 37.582 17.4304 38.9221 14.8742 42.0841C12.9848 44.4216 11.8548 46.4031 11.4733 48.029C11.2568 48.9565 11.3948 49.8312 11.8531 50.6228L11.8645 50.6329ZM18.6509 42.1776C21.3566 41.1921 24.1894 41.082 27.1939 41.8661C22.7566 46.0304 19.2412 47.8055 16.6387 47.2241C16.1776 47.1217 15.7674 46.7794 15.4087 46.2081C15.0615 45.647 14.9246 45.1597 15.0207 44.7666C15.2277 43.8612 16.4454 43.005 18.6516 42.1883L18.6509 42.1776Z" fill="url(#paint5_linear_388_34)"/>
<path d="M18.0103 16.1113C17.3898 16.8038 17.1067 17.5199 17.173 18.2803C17.293 19.5866 18.2921 21.1004 21.0901 23.1666C25.7341 26.59 28.326 26.8059 29.8499 29.5057C30.1164 29.9854 30.7466 31.1222 30.8074 32.7118C30.8512 33.8288 30.5903 34.7373 30.3733 35.2881C33.1171 35.506 35.7052 34.3659 37.1206 32.2603C38.3261 30.4575 38.2579 28.5561 38.1954 27.8601C37.812 26.1277 36.8727 23.2326 34.4238 20.651C32.7139 18.8447 30.9497 17.7735 27.126 16.3264C24.3002 15.2628 22.0515 14.801 20.3914 14.9509C19.432 15.0387 18.6421 15.4289 18.0211 16.1107L18.0103 16.1113ZM28.2027 19.9024C29.9816 22.146 30.961 24.802 31.141 27.8701C25.7795 24.9619 22.994 22.1845 22.7534 19.5612C22.7149 19.0898 22.9026 18.5946 23.3495 18.0843C23.7862 17.5854 24.2031 17.3029 24.6129 17.2684C25.5398 17.1825 26.7407 18.071 28.2027 19.9024Z" fill="url(#paint6_linear_388_34)"/>
<path d="M52.9561 11.2468C52.0999 10.8765 51.3274 10.8243 50.6189 11.1237C49.4033 11.6462 48.2717 13.0464 47.1531 16.3297C45.3052 21.7758 45.8971 24.2926 43.7873 26.5676C43.4104 26.9769 42.5122 27.9224 41.0158 28.4611C39.9546 28.8454 39.0137 28.8784 38.4159 28.8484C39.0599 31.5129 40.9488 33.5995 43.3949 34.2868C45.4879 34.8653 47.2919 34.2119 47.9476 33.9371C49.4875 33.0299 51.9731 31.2499 53.6875 28.1474C54.8818 25.9685 55.3715 23.9703 55.5668 19.9116C55.7165 16.9212 55.4535 14.6544 54.7999 13.1207C54.4231 12.2383 53.8015 11.6176 52.9555 11.236L52.9561 11.2468ZM52.4737 22.0497C50.8682 24.4247 48.6298 26.1689 45.7475 27.283C46.8714 21.3191 48.6712 17.8242 51.1139 16.7894C51.5472 16.6028 52.0802 16.6365 52.7128 16.8906C53.3239 17.1458 53.7214 17.4565 53.8844 17.8346C54.2486 18.6854 53.7676 20.0911 52.4737 22.0497Z" fill="url(#paint7_linear_388_34)"/>
<path d="M68.4163 42.7631C68.5141 41.8425 68.3188 41.1003 67.8077 40.5163C66.9366 39.5226 65.2414 38.8888 61.7498 38.854C55.9699 38.7903 53.7406 40.1357 50.9117 38.8355C50.4106 38.6062 49.2292 38.0502 48.2452 36.794C47.5539 35.9083 47.2316 35.0335 47.068 34.4617C44.7243 35.8891 43.2961 38.3291 43.4002 40.8419C43.4943 43.0001 44.677 44.5032 45.1411 45.0253C46.4777 46.1966 48.9569 48.0014 52.4634 48.6596C54.9179 49.1203 56.9783 48.958 60.9253 47.8899C63.8379 47.1078 65.9279 46.158 67.1858 45.0625C67.9072 44.4288 68.3167 43.6515 68.4151 42.7417L68.4163 42.7631ZM57.9216 45.6418C55.156 44.8654 52.7878 43.291 50.8273 40.9072C56.8834 40.1368 60.7876 40.7397 62.5304 42.7378C62.844 43.0964 62.9822 43.6051 62.924 44.2759C62.876 44.9353 62.6972 45.3977 62.3883 45.6739C61.6873 46.285 60.1905 46.264 57.9216 45.6418Z" fill="url(#paint8_linear_388_34)"/>
<path d="M43.023 67.1071C43.9328 66.9145 44.5912 66.4996 44.9861 65.8416C45.6678 64.715 45.7463 62.9128 44.7068 59.6038C42.9761 54.1173 41.0134 52.4332 41.3746 49.3553C41.4404 48.8133 41.6031 47.5229 42.5008 46.2007C43.129 45.2709 43.8758 44.7003 44.3658 44.3705C42.2678 42.5974 39.502 42.004 37.1154 42.8849C35.0788 43.6379 34.0119 45.2174 33.6463 45.8198C32.9288 47.4437 31.9825 50.3403 32.4272 53.856C32.7448 56.3134 33.5391 58.2157 35.776 61.6169C37.4296 64.1262 38.98 65.8018 40.4179 66.6658C41.2486 67.1559 42.1131 67.2997 43.023 67.1071ZM37.0206 58.0788C36.9072 55.2221 37.6907 52.5072 39.3592 49.9133C41.9672 55.392 42.5953 59.2631 41.2224 61.5385C40.9751 61.9403 40.5258 62.2247 39.8637 62.3922C39.2118 62.5483 38.7119 62.5234 38.3638 62.3175C37.5668 61.847 37.1152 60.4307 37.0104 58.0902L37.0206 58.0788Z" fill="url(#paint9_linear_388_34)"/>
</g>
<defs>
<filter id="filter0_d_388_34" x="0" y="0" width="158" height="83" filterUnits="userSpaceOnUse" color-interpolation-filters="sRGB">
<feFlood flood-opacity="0" result="BackgroundImageFix"/>
<feColorMatrix in="SourceAlpha" type="matrix" values="0 0 0 0 0 0 0 0 0 0 0 0 0 0 0 0 0 0 127 0" result="hardAlpha"/>
<feOffset dx="2" dy="2"/>
<feGaussianBlur stdDeviation="1"/>
<feComposite in2="hardAlpha" operator="out"/>
<feColorMatrix type="matrix" values="0 0 0 0 0 0 0 0 0 0 0 0 0 0 0 0 0 0 0.25 0"/>
<feBlend mode="normal" in2="BackgroundImageFix" result="effect1_dropShadow_388_34"/>
<feBlend mode="normal" in="SourceGraphic" in2="effect1_dropShadow_388_34" result="shape"/>
</filter>
<linearGradient id="paint0_linear_388_34" x1="82.8157" y1="47.4019" x2="155.016" y2="41.7812" gradientUnits="userSpaceOnUse">
<stop stop-color="#4161A1"/>
<stop offset="0.605769" stop-color="#FF9752"/>
<stop offset="1" stop-color="#D1914C"/>
</linearGradient>
<linearGradient id="paint1_linear_388_34" x1="82.8157" y1="47.4019" x2="155.016" y2="41.7812" gradientUnits="userSpaceOnUse">
<stop stop-color="#4161A1"/>
<stop offset="0.605769" stop-color="#FF9752"/>
<stop offset="1" stop-color="#D1914C"/>
</linearGradient>
<linearGradient id="paint2_linear_388_34" x1="82.8157" y1="47.4019" x2="155.016" y2="41.7812" gradientUnits="userSpaceOnUse">
<stop stop-color="#4161A1"/>
<stop offset="0.605769" stop-color="#FF9752"/>
<stop offset="1" stop-color="#D1914C"/>
</linearGradient>
<linearGradient id="paint3_linear_388_34" x1="82.8157" y1="47.4019" x2="155.016" y2="41.7812" gradientUnits="userSpaceOnUse">
<stop stop-color="#4161A1"/>
<stop offset="0.605769" stop-color="#FF9752"/>
<stop offset="1" stop-color="#D1914C"/>
</linearGradient>
<linearGradient id="paint4_linear_388_34" x1="82.8157" y1="47.4019" x2="155.016" y2="41.7812" gradientUnits="userSpaceOnUse">
<stop stop-color="#4161A1"/>
<stop offset="0.605769" stop-color="#FF9752"/>
<stop offset="1" stop-color="#D1914C"/>
</linearGradient>
<linearGradient id="paint5_linear_388_34" x1="31.3017" y1="36.1184" x2="13.9155" y2="47.3319" gradientUnits="userSpaceOnUse">
<stop offset="0.03" stop-color="#395387"/>
<stop offset="0.293269" stop-color="#75A3FF"/>
<stop offset="0.807692" stop-color="#385387"/>
</linearGradient>
<linearGradient id="paint6_linear_388_34" x1="34.5136" y1="36.7213" x2="21.8547" y2="16.402" gradientUnits="userSpaceOnUse">
<stop offset="0.0336538" stop-color="#32466F"/>
<stop offset="0.326923" stop-color="#77A4FF"/>
<stop offset="1" stop-color="#354D7D"/>
</linearGradient>
<linearGradient id="paint7_linear_388_34" x1="50.7954" y1="8.32821" x2="46.2672" y2="38.4199" gradientUnits="userSpaceOnUse">
<stop stop-color="#365185"/>
<stop offset="0.528846" stop-color="#6B9DFF"/>
<stop offset="0.927885" stop-color="#395387"/>
</linearGradient>
<linearGradient id="paint8_linear_388_34" x1="43.4577" y1="42.2394" x2="68.5123" y2="43.4644" gradientUnits="userSpaceOnUse">
<stop offset="0.1875" stop-color="#395387"/>
<stop offset="0.509615" stop-color="#5B8FF5"/>
<stop offset="1" stop-color="#395387"/>
</linearGradient>
<linearGradient id="paint9_linear_388_34" x1="35.5665" y1="47.6595" x2="41.1043" y2="67.2081" gradientUnits="userSpaceOnUse">
<stop offset="0.197115" stop-color="#395387"/>
<stop offset="0.598558" stop-color="#6193F5"/>
<stop offset="1" stop-color="#395387"/>
</linearGradient>
</defs>
</svg>
