<svg width="287" height="150" viewBox="0 0 287 150" fill="none" xmlns="http://www.w3.org/2000/svg">
<g filter="url(#filter0_d_282_55)">
<path d="M151.977 92.5883C149.491 92.5883 147.281 92.2296 145.347 91.5121C143.432 90.7763 141.866 89.7184 140.651 88.3387C139.454 86.959 138.699 85.3033 138.386 83.3716L146.148 82.323C146.498 83.7211 147.17 84.779 148.165 85.4964C149.159 86.2139 150.485 86.5726 152.143 86.5726C153.708 86.5726 154.942 86.2783 155.844 85.6896C156.747 85.0825 157.198 84.319 157.198 83.3992C157.198 82.6081 156.867 81.9643 156.204 81.4676C155.559 80.9525 154.583 80.5569 153.275 80.281L147.999 79.2324C145.052 78.6253 142.843 77.5951 141.369 76.1417C139.896 74.6884 139.159 72.8119 139.159 70.5124C139.159 68.5807 139.684 66.9066 140.734 65.4901C141.802 64.0735 143.294 62.979 145.209 62.2063C147.143 61.4336 149.399 61.0473 151.977 61.0473C154.445 61.0473 156.581 61.3968 158.386 62.0959C160.191 62.795 161.636 63.7884 162.723 65.0762C163.828 66.3639 164.528 67.8817 164.822 69.6293L157.447 70.6503C157.189 69.5649 156.609 68.6819 155.706 68.0012C154.822 67.3022 153.634 66.9526 152.143 66.9526C150.762 66.9526 149.62 67.247 148.717 67.8357C147.833 68.406 147.391 69.151 147.391 70.0708C147.391 70.8435 147.695 71.4966 148.303 72.0301C148.911 72.5452 149.905 72.9407 151.286 73.2167L156.811 74.3205C159.795 74.9092 162.005 75.8842 163.441 77.2455C164.896 78.6069 165.624 80.3822 165.624 82.5714C165.624 84.5766 165.043 86.3335 163.883 87.842C162.723 89.3321 161.112 90.5003 159.049 91.3465C157.005 92.1744 154.647 92.5883 151.977 92.5883Z" fill="url(#paint0_linear_282_55)"/>
<path d="M179.657 92.5331C177.705 92.5331 175.955 92.1928 174.408 91.5121C172.861 90.8314 171.646 89.8196 170.762 88.4767C169.878 87.1153 169.436 85.432 169.436 83.4268C169.436 81.7159 169.749 80.2902 170.375 79.1496C171.001 78.009 171.857 77.0892 172.944 76.3901C174.031 75.691 175.264 75.1667 176.646 74.8172C178.045 74.4492 179.509 74.1917 181.038 74.0445C182.824 73.8606 184.261 73.695 185.347 73.5478C186.434 73.3822 187.226 73.1339 187.723 72.8027C188.22 72.4716 188.469 71.9749 188.469 71.3126V71.1746C188.469 70.3284 188.276 69.6109 187.889 69.0222C187.521 68.4152 186.977 67.9552 186.259 67.6425C185.541 67.3114 184.666 67.1458 183.635 67.1458C182.585 67.1458 181.664 67.3114 180.872 67.6425C180.099 67.9552 179.463 68.3876 178.966 68.9395C178.487 69.473 178.147 70.08 177.944 70.7607L170.347 69.7949C170.771 67.9552 171.581 66.3823 172.778 65.0762C173.975 63.77 175.504 62.7766 177.364 62.0959C179.224 61.3968 181.342 61.0473 183.718 61.0473C185.449 61.0473 187.088 61.2497 188.635 61.6544C190.2 62.0591 191.591 62.6846 192.806 63.5308C194.022 64.3771 194.97 65.4533 195.651 66.7595C196.351 68.0472 196.701 69.5925 196.701 71.3954V91.9536H188.828V87.704H188.579C188.082 88.6606 187.419 89.5069 186.591 90.2427C185.78 90.9602 184.804 91.5213 183.662 91.926C182.521 92.3308 181.185 92.5331 179.657 92.5331ZM181.977 86.7658C183.285 86.7658 184.427 86.5082 185.403 85.9931C186.379 85.478 187.143 84.7881 187.695 83.9235C188.248 83.0589 188.524 82.0838 188.524 80.9984V77.7698C188.266 77.917 187.907 78.0642 187.447 78.2114C186.986 78.3585 186.462 78.4873 185.872 78.5977C185.283 78.7081 184.684 78.8092 184.077 78.9012C183.487 78.9932 182.944 79.076 182.447 79.1496C181.452 79.2968 180.568 79.5359 179.795 79.8671C179.021 80.1798 178.423 80.6121 177.999 81.164C177.576 81.6975 177.364 82.369 177.364 83.1784C177.364 83.9511 177.557 84.6042 177.944 85.1377C178.349 85.6712 178.892 86.0759 179.574 86.3519C180.274 86.6278 181.075 86.7658 181.977 86.7658Z" fill="url(#paint1_linear_282_55)"/>
<path d="M211.701 74.4584V91.9536H203.469V50.8372H211.591V69.1602H210.734C211.563 66.5847 212.806 64.5887 214.464 63.1721C216.14 61.7556 218.285 61.0473 220.9 61.0473C223.018 61.0473 224.869 61.5072 226.453 62.4271C228.036 63.3469 229.261 64.6714 230.127 66.4007C231.011 68.13 231.453 70.2088 231.453 72.6372V91.9536H223.193V74.0997C223.193 72.1681 222.705 70.6687 221.729 69.6017C220.753 68.5163 219.39 67.9736 217.64 67.9736C216.48 67.9736 215.449 68.2312 214.547 68.7463C213.663 69.243 212.963 69.9697 212.447 70.9263C211.95 71.8829 211.701 73.0603 211.701 74.4584Z" fill="url(#paint2_linear_282_55)"/>
<path d="M238.221 91.9536V61.4888H246.453V91.9536H238.221ZM242.337 57.5427C241.066 57.5427 239.979 57.1288 239.077 56.301C238.193 55.4731 237.751 54.4613 237.751 53.2655C237.751 52.0698 238.193 51.0579 239.077 50.2301C239.979 49.4022 241.066 48.9883 242.337 48.9883C243.607 48.9883 244.685 49.4022 245.569 50.2301C246.453 51.0579 246.895 52.0698 246.895 53.2655C246.895 54.4613 246.453 55.4731 245.569 56.301C244.685 57.1288 243.607 57.5427 242.337 57.5427Z" fill="url(#paint3_linear_282_55)"/>
<path d="M270.403 92.4779C268.819 92.4779 267.447 92.2204 266.287 91.7053C265.145 91.1718 264.197 90.5003 263.442 89.6909C262.687 88.863 262.097 88.0076 261.674 87.1245H261.342V91.9536H253.248V50.8372H261.481V66.4283H261.702C262.144 65.5453 262.733 64.699 263.469 63.8896C264.206 63.0617 265.145 62.3811 266.287 61.8476C267.429 61.3141 268.819 61.0473 270.458 61.0473C272.797 61.0473 274.906 61.6544 276.784 62.8686C278.681 64.0644 280.192 65.8304 281.315 68.1668C282.438 70.4848 283 73.3454 283 76.7488C283 80.097 282.448 82.9393 281.343 85.2757C280.256 87.612 278.764 89.3965 276.867 90.6291C274.97 91.8617 272.816 92.4779 270.403 92.4779ZM267.945 85.8552C269.381 85.8552 270.587 85.478 271.563 84.7238C272.54 83.9511 273.276 82.8841 273.773 81.5227C274.289 80.143 274.547 78.5425 274.547 76.7212C274.547 74.9184 274.289 73.3363 273.773 71.9749C273.276 70.6135 272.54 69.5557 271.563 68.8015C270.587 68.0472 269.381 67.6701 267.945 67.6701C266.545 67.6701 265.339 68.0472 264.326 68.8015C263.331 69.5373 262.567 70.586 262.033 71.9473C261.517 73.2903 261.26 74.8816 261.26 76.7212C261.26 78.5609 261.527 80.1614 262.061 81.5227C262.595 82.8841 263.359 83.9511 264.353 84.7238C265.366 85.478 266.563 85.8552 267.945 85.8552Z" fill="url(#paint4_linear_282_55)"/>
<path d="M21.803 93.5747C22.6661 95.0563 23.7747 95.9665 25.1463 96.2646C27.5276 96.8024 30.7234 95.94 35.9626 92.2133C44.625 86.0593 46.4802 81.6742 52.0893 80.5321C53.0934 80.3343 55.4566 79.8785 58.272 80.6894C60.2576 81.2701 61.7082 82.24 62.5636 82.9063C64.5018 78.2379 63.9606 73.0573 61.0591 69.4067C58.566 66.2694 55.1844 65.3124 53.9132 65.0283C50.6491 64.721 45.0115 64.6911 39.0816 67.5031C34.9337 69.4554 32.0312 71.932 27.3337 77.7756C23.8617 82.0957 21.7851 85.7576 21.0841 88.7625C20.6863 90.4766 20.9399 92.0931 21.782 93.556L21.803 93.5747ZM34.2741 77.9485C39.2462 76.1273 44.452 75.9237 49.9732 77.3728C41.819 85.0688 35.3588 88.3493 30.5764 87.275C29.7289 87.0856 28.9751 86.4531 28.316 85.3973C27.678 84.3602 27.4263 83.4597 27.603 82.7333C27.9833 81.06 30.2211 79.4775 34.2753 77.9683L34.2741 77.9485Z" fill="url(#paint5_linear_282_55)"/>
<path d="M33.0968 29.7753C31.9567 31.0552 31.4364 32.3786 31.5582 33.7839C31.7787 36.1981 33.6148 38.9957 38.7565 42.8143C47.2906 49.141 52.0536 49.5401 54.854 54.5295C55.3438 55.4161 56.5019 57.517 56.6136 60.4548C56.6942 62.519 56.2146 64.1981 55.8159 65.216C60.858 65.6187 65.6142 63.5117 68.2151 59.6203C70.4304 56.2885 70.305 52.7746 70.1902 51.4882C69.4856 48.2866 67.7595 42.9363 63.2593 38.1652C60.1171 34.827 56.875 32.8473 49.8484 30.1728C44.6555 28.2073 40.5231 27.3537 37.4724 27.6307C35.7095 27.7931 34.2579 28.5141 33.1166 29.7742L33.0968 29.7753ZM51.8271 36.7817C55.0961 40.9281 56.8959 45.8365 57.2267 51.5068C47.374 46.1322 42.2552 40.9993 41.813 36.1511C41.7423 35.2799 42.0872 34.3646 42.9084 33.4216C43.711 32.4996 44.4771 31.9775 45.2302 31.9138C46.9336 31.755 49.1403 33.397 51.8271 36.7817Z" fill="url(#paint6_linear_282_55)"/>
<path d="M97.3154 20.7851C95.742 20.1009 94.3225 20.0045 93.0205 20.5577C90.7866 21.5233 88.7071 24.1111 86.6514 30.179C83.2556 40.2438 84.3434 44.8952 80.4663 49.0996C79.7736 49.8561 78.1231 51.6034 75.3732 52.599C73.4231 53.3093 71.6941 53.3701 70.5955 53.3147C71.779 58.2391 75.25 62.0953 79.7452 63.3654C83.5914 64.4346 86.9065 63.2271 88.1116 62.7193C90.9412 61.0426 95.509 57.7529 98.6596 52.0192C100.854 47.9924 101.754 44.2995 102.113 36.7986C102.388 31.2721 101.905 27.0828 100.704 24.2483C100.011 22.6176 98.8689 21.4706 97.3142 20.7653L97.3154 20.7851ZM96.4289 40.7501C93.4787 45.1393 89.3651 48.3628 84.0684 50.4217C86.1338 39.3999 89.4413 32.9409 93.93 31.0284C94.7264 30.6837 95.7059 30.746 96.8684 31.2155C97.9912 31.6872 98.7217 32.2614 99.0214 32.9601C99.6907 34.5325 98.8066 37.1304 96.4289 40.7501Z" fill="url(#paint7_linear_282_55)"/>
<path d="M125.726 79.0306C125.906 77.3292 125.547 75.9575 124.608 74.8783C123.007 73.0418 119.892 71.8704 113.475 71.8062C102.854 71.6885 98.7571 74.1749 93.5585 71.772C92.6376 71.3482 90.4667 70.3207 88.6584 67.999C87.388 66.3621 86.7958 64.7454 86.4952 63.6887C82.1881 66.3266 79.5636 70.8361 79.7548 75.48C79.9278 79.4685 82.1012 82.2465 82.9541 83.2114C85.4104 85.376 89.9663 88.7115 96.41 89.9279C100.921 90.7794 104.707 90.4794 111.96 88.5055C117.313 87.06 121.153 85.3046 123.465 83.2802C124.79 82.1088 125.543 80.6725 125.724 78.9909L125.726 79.0306ZM106.44 84.3508C101.358 82.9159 97.0062 80.0061 93.4035 75.6006C104.532 74.1769 111.707 75.291 114.91 78.9838C115.486 79.6466 115.74 80.5867 115.633 81.8263C115.545 83.0449 115.216 83.8996 114.649 84.4101C113.36 85.5394 110.61 85.5006 106.44 84.3508Z" fill="url(#paint8_linear_282_55)"/>
<path d="M79.0617 124.021C80.7337 123.665 81.9436 122.898 82.6693 121.682C83.9219 119.6 84.0662 116.269 82.1561 110.154C78.9756 100.014 75.3687 96.902 76.0326 91.2136C76.1534 90.2119 76.4524 87.8271 78.1022 85.3837C79.2566 83.6653 80.6289 82.6106 81.5294 82.0012C77.6739 78.7244 72.5914 77.6277 68.2055 79.2557C64.4631 80.6472 62.5025 83.5664 61.8306 84.6797C60.512 87.6808 58.7731 93.0339 59.5903 99.5313C60.1738 104.073 61.6336 107.589 65.7442 113.874C68.7829 118.512 71.6322 121.608 74.2744 123.205C75.8009 124.111 77.3897 124.377 79.0617 124.021ZM68.0314 107.336C67.823 102.056 69.2628 97.0386 72.3289 92.2448C77.1216 102.37 78.2758 109.524 75.7529 113.729C75.2984 114.472 74.4727 114.998 73.256 115.307C72.0581 115.596 71.1393 115.55 70.4998 115.169C69.0351 114.299 68.2053 111.682 68.0127 107.356L68.0314 107.336Z" fill="url(#paint9_linear_282_55)"/>
</g>
<defs>
<filter id="filter0_d_282_55" x="0" y="0" width="287" height="150" filterUnits="userSpaceOnUse" color-interpolation-filters="sRGB">
<feFlood flood-opacity="0" result="BackgroundImageFix"/>
<feColorMatrix in="SourceAlpha" type="matrix" values="0 0 0 0 0 0 0 0 0 0 0 0 0 0 0 0 0 0 127 0" result="hardAlpha"/>
<feOffset dx="2" dy="2"/>
<feGaussianBlur stdDeviation="1"/>
<feComposite in2="hardAlpha" operator="out"/>
<feColorMatrix type="matrix" values="0 0 0 0 0 0 0 0 0 0 0 0 0 0 0 0 0 0 0.25 0"/>
<feBlend mode="normal" in2="BackgroundImageFix" result="effect1_dropShadow_282_55"/>
<feBlend mode="normal" in="SourceGraphic" in2="effect1_dropShadow_282_55" result="shape"/>
</filter>
<linearGradient id="paint0_linear_282_55" x1="152.187" y1="87.6035" x2="284.877" y2="77.3322" gradientUnits="userSpaceOnUse">
<stop stop-color="#4161A1"/>
<stop offset="0.605769" stop-color="#585A5E"/>
<stop offset="1" stop-color="#616161"/>
</linearGradient>
<linearGradient id="paint1_linear_282_55" x1="152.187" y1="87.6035" x2="284.877" y2="77.3322" gradientUnits="userSpaceOnUse">
<stop stop-color="#4161A1"/>
<stop offset="0.605769" stop-color="#585A5E"/>
<stop offset="1" stop-color="#616161"/>
</linearGradient>
<linearGradient id="paint2_linear_282_55" x1="152.187" y1="87.6035" x2="284.877" y2="77.3322" gradientUnits="userSpaceOnUse">
<stop stop-color="#4161A1"/>
<stop offset="0.605769" stop-color="#585A5E"/>
<stop offset="1" stop-color="#616161"/>
</linearGradient>
<linearGradient id="paint3_linear_282_55" x1="152.187" y1="87.6035" x2="284.877" y2="77.3322" gradientUnits="userSpaceOnUse">
<stop stop-color="#4161A1"/>
<stop offset="0.605769" stop-color="#585A5E"/>
<stop offset="1" stop-color="#616161"/>
</linearGradient>
<linearGradient id="paint4_linear_282_55" x1="152.187" y1="87.6035" x2="284.877" y2="77.3322" gradientUnits="userSpaceOnUse">
<stop stop-color="#4161A1"/>
<stop offset="0.605769" stop-color="#585A5E"/>
<stop offset="1" stop-color="#616161"/>
</linearGradient>
<linearGradient id="paint5_linear_282_55" x1="57.5219" y1="66.7504" x2="25.4659" y2="87.3087" gradientUnits="userSpaceOnUse">
<stop offset="0.03" stop-color="#395387"/>
<stop offset="0.293269" stop-color="#75A3FF"/>
<stop offset="0.807692" stop-color="#385387"/>
</linearGradient>
<linearGradient id="paint6_linear_282_55" x1="63.4243" y1="67.8647" x2="39.9712" y2="30.4318" gradientUnits="userSpaceOnUse">
<stop offset="0.0336538" stop-color="#32466F"/>
<stop offset="0.326923" stop-color="#77A4FF"/>
<stop offset="1" stop-color="#354D7D"/>
</linearGradient>
<linearGradient id="paint7_linear_282_55" x1="93.3448" y1="15.3914" x2="84.9309" y2="70.9898" gradientUnits="userSpaceOnUse">
<stop stop-color="#365185"/>
<stop offset="0.528846" stop-color="#6B9DFF"/>
<stop offset="0.927885" stop-color="#395387"/>
</linearGradient>
<linearGradient id="paint8_linear_282_55" x1="79.8606" y1="78.0627" x2="125.904" y2="80.3012" gradientUnits="userSpaceOnUse">
<stop offset="0.1875" stop-color="#395387"/>
<stop offset="0.509615" stop-color="#5B8FF5"/>
<stop offset="1" stop-color="#395387"/>
</linearGradient>
<linearGradient id="paint9_linear_282_55" x1="65.3593" y1="88.0796" x2="75.6431" y2="124.177" gradientUnits="userSpaceOnUse">
<stop offset="0.197115" stop-color="#395387"/>
<stop offset="0.598558" stop-color="#6193F5"/>
<stop offset="1" stop-color="#395387"/>
</linearGradient>
</defs>
</svg>
