<svg width="258" height="135" viewBox="0 0 258 135" fill="none" xmlns="http://www.w3.org/2000/svg">
<g filter="url(#filter0_d_282_55)">
<path d="M136.403 83.0758C134.172 83.0758 132.188 82.7539 130.453 82.1102C128.734 81.4499 127.329 80.5008 126.238 79.2628C125.164 78.0248 124.486 76.5392 124.205 74.806L131.172 73.8652C131.486 75.1197 132.089 76.0688 132.982 76.7125C133.874 77.3563 135.065 77.6782 136.552 77.6782C137.957 77.6782 139.065 77.4141 139.875 76.8859C140.684 76.3411 141.089 75.6561 141.089 74.8308C141.089 74.121 140.792 73.5433 140.197 73.0976C139.618 72.6354 138.742 72.2805 137.569 72.0329L132.833 71.0921C130.188 70.5473 128.205 69.623 126.883 68.319C125.56 67.0149 124.899 65.3313 124.899 63.2679C124.899 61.5348 125.37 60.0327 126.312 58.7617C127.271 57.4907 128.61 56.5085 130.329 55.8152C132.065 55.122 134.089 54.7753 136.403 54.7753C138.618 54.7753 140.536 55.0889 142.156 55.7162C143.775 56.3434 145.073 57.2348 146.048 58.3903C147.04 59.5457 147.668 60.9075 147.932 62.4756L141.313 63.3917C141.081 62.4179 140.56 61.6255 139.751 61.0148C138.957 60.3876 137.891 60.0739 136.552 60.0739C135.312 60.0739 134.288 60.338 133.478 60.8662C132.684 61.3779 132.288 62.0465 132.288 62.8718C132.288 63.5651 132.56 64.151 133.106 64.6297C133.651 65.0919 134.544 65.4468 135.784 65.6944L140.742 66.6848C143.42 67.213 145.404 68.0879 146.693 69.3093C147.999 70.5308 148.652 72.1237 148.652 74.088C148.652 75.8872 148.131 77.4636 147.089 78.8171C146.048 80.1542 144.602 81.2023 142.751 81.9616C140.916 82.7044 138.8 83.0758 136.403 83.0758Z" fill="url(#paint0_linear_282_55)"/>
<path d="M161.247 83.0263C159.495 83.0263 157.924 82.7209 156.536 82.1102C155.147 81.4994 154.057 80.5916 153.263 79.3866C152.47 78.1651 152.073 76.6548 152.073 74.8556C152.073 73.3204 152.354 72.0412 152.916 71.0178C153.478 69.9944 154.247 69.169 155.222 68.5418C156.197 67.9145 157.305 67.4441 158.544 67.1305C159.8 66.8004 161.114 66.5693 162.486 66.4372C164.09 66.2721 165.379 66.1236 166.354 65.9915C167.329 65.843 168.04 65.6201 168.486 65.323C168.933 65.0259 169.156 64.5802 169.156 63.986V63.8622C169.156 63.1029 168.982 62.4591 168.635 61.9309C168.305 61.3862 167.817 60.9735 167.172 60.6929C166.528 60.3958 165.743 60.2472 164.817 60.2472C163.875 60.2472 163.048 60.3958 162.338 60.6929C161.643 60.9735 161.073 61.3614 160.627 61.8566C160.197 62.3353 159.891 62.88 159.71 63.4908L152.891 62.6242C153.271 60.9735 153.999 59.5622 155.073 58.3903C156.147 57.2183 157.519 56.3269 159.189 55.7162C160.858 55.0889 162.759 54.7753 164.891 54.7753C166.445 54.7753 167.916 54.9569 169.305 55.32C170.71 55.6832 171.958 56.2444 173.049 57.0037C174.139 57.763 174.991 58.7286 175.602 59.9006C176.23 61.0561 176.544 62.4426 176.544 64.0603V82.5063H169.478V78.6933H169.255C168.809 79.5517 168.214 80.311 167.47 80.9712C166.743 81.615 165.867 82.1184 164.842 82.4816C163.817 82.8447 162.619 83.0263 161.247 83.0263ZM163.329 77.8515C164.503 77.8515 165.528 77.6204 166.404 77.1582C167.28 76.696 167.966 76.077 168.462 75.3012C168.958 74.5254 169.205 73.6506 169.205 72.6767V69.7798C168.974 69.9118 168.652 70.0439 168.239 70.1759C167.825 70.308 167.354 70.4235 166.825 70.5226C166.296 70.6216 165.759 70.7124 165.214 70.7949C164.685 70.8775 164.197 70.9518 163.751 71.0178C162.858 71.1498 162.065 71.3644 161.371 71.6615C160.676 71.9421 160.139 72.33 159.759 72.8252C159.379 73.3039 159.189 73.9064 159.189 74.6327C159.189 75.326 159.362 75.912 159.71 76.3907C160.073 76.8694 160.561 77.2325 161.172 77.4801C161.8 77.7277 162.519 77.8515 163.329 77.8515Z" fill="url(#paint1_linear_282_55)"/>
<path d="M190.007 66.8086V82.5063H182.619V45.6142H189.908V62.0547H189.14C189.883 59.7438 190.999 57.9528 192.487 56.6818C193.991 55.4108 195.917 54.7753 198.264 54.7753C200.165 54.7753 201.826 55.188 203.247 56.0133C204.669 56.8386 205.768 58.0271 206.545 59.5787C207.338 61.1303 207.735 62.9956 207.735 65.1745V82.5063H200.322V66.4867C200.322 64.7535 199.884 63.4083 199.008 62.4509C198.132 61.477 196.908 60.99 195.338 60.99C194.297 60.99 193.371 61.2211 192.561 61.6833C191.768 62.129 191.14 62.781 190.677 63.6393C190.231 64.4977 190.007 65.5541 190.007 66.8086Z" fill="url(#paint2_linear_282_55)"/>
<path d="M213.809 82.5063V55.1715H221.198V82.5063H213.809ZM217.504 51.6308C216.363 51.6308 215.388 51.2594 214.578 50.5166C213.785 49.7738 213.388 48.866 213.388 47.793C213.388 46.7201 213.785 45.8123 214.578 45.0695C215.388 44.3267 216.363 43.9553 217.504 43.9553C218.644 43.9553 219.611 44.3267 220.405 45.0695C221.198 45.8123 221.595 46.7201 221.595 47.793C221.595 48.866 221.198 49.7738 220.405 50.5166C219.611 51.2594 218.644 51.6308 217.504 51.6308Z" fill="url(#paint3_linear_282_55)"/>
<path d="M242.694 82.9768C241.273 82.9768 240.041 82.7457 239 82.2835C237.975 81.8048 237.124 81.2023 236.446 80.476C235.768 79.7332 235.239 78.9657 234.859 78.1734H234.562V82.5063H227.297V45.6142H234.686V59.6035H234.884C235.281 58.8112 235.81 58.0519 236.471 57.3256C237.132 56.5828 237.975 55.972 239 55.4934C240.025 55.0147 241.273 54.7753 242.744 54.7753C244.843 54.7753 246.735 55.32 248.421 56.4095C250.124 57.4824 251.479 59.067 252.488 61.1634C253.496 63.2432 254 65.81 254 68.8637C254 71.8679 253.504 74.4181 252.512 76.5145C251.537 78.6108 250.198 80.2119 248.496 81.3179C246.793 82.4238 244.859 82.9768 242.694 82.9768ZM240.487 77.0344C241.777 77.0344 242.859 76.696 243.735 76.0193C244.611 75.326 245.273 74.3686 245.719 73.1471C246.182 71.9091 246.413 70.4731 246.413 68.8389C246.413 67.2213 246.182 65.8017 245.719 64.5802C245.273 63.3587 244.611 62.4096 243.735 61.7328C242.859 61.0561 241.777 60.7177 240.487 60.7177C239.231 60.7177 238.149 61.0561 237.239 61.7328C236.347 62.3931 235.661 63.334 235.182 64.5555C234.719 65.7604 234.487 67.1883 234.487 68.8389C234.487 70.4896 234.727 71.9256 235.206 73.1471C235.686 74.3686 236.372 75.326 237.264 76.0193C238.173 76.696 239.248 77.0344 240.487 77.0344Z" fill="url(#paint4_linear_282_55)"/>
<path d="M19.5688 83.9609C20.3434 85.2902 21.3384 86.1069 22.5695 86.3744C24.7067 86.8569 27.5751 86.0831 32.2774 82.7393C40.0522 77.2176 41.7172 73.283 46.7515 72.2582C47.6527 72.0808 49.7738 71.6718 52.3007 72.3994C54.0828 72.9204 55.3847 73.7907 56.1525 74.3886C57.892 70.1998 57.4063 65.5514 54.8022 62.2758C52.5645 59.4609 49.5294 58.6022 48.3885 58.3473C45.4589 58.0716 40.399 58.0447 35.0768 60.5678C31.354 62.3195 28.7489 64.5417 24.5327 69.785C21.4165 73.6612 19.5527 76.9469 18.9236 79.6431C18.5665 81.1811 18.7941 82.6315 19.5499 83.9441L19.5688 83.9609ZM30.7619 69.9401C35.2245 68.306 39.8968 68.1233 44.8523 69.4235C37.5337 76.3289 31.7355 79.2723 27.4431 78.3084C26.6825 78.1384 26.0059 77.5709 25.4144 76.6236C24.8417 75.6931 24.6159 74.8851 24.7744 74.2333C25.1158 72.7319 27.1242 71.312 30.763 69.9579L30.7619 69.9401Z" fill="url(#paint5_linear_282_55)"/>
<path d="M29.7052 26.7162C28.6819 27.8646 28.215 29.052 28.3243 30.313C28.5222 32.4791 30.1701 34.9893 34.785 38.4156C42.4446 44.0922 46.7195 44.4503 49.2329 48.9271C49.6725 49.7226 50.712 51.6077 50.8122 54.2437C50.8845 56.0958 50.4541 57.6024 50.0963 58.5157C54.6216 58.8771 58.8904 56.9865 61.2248 53.4949C63.2131 50.5054 63.1006 47.3526 62.9975 46.1983C62.3652 43.3256 60.816 38.525 56.7769 34.2441C53.9567 31.2488 51.0468 29.4726 44.7403 27.0729C40.0795 25.3093 36.3706 24.5434 33.6325 24.792C32.0502 24.9376 30.7474 25.5846 29.7231 26.7152L29.7052 26.7162ZM46.5162 33.0027C49.4502 36.7232 51.0656 41.1273 51.3625 46.215C42.5194 41.3926 37.9251 36.787 37.5283 32.4369C37.4648 31.6553 37.7744 30.834 38.5115 29.9879C39.2318 29.1606 39.9194 28.6922 40.5953 28.635C42.1241 28.4925 44.1047 29.9658 46.5162 33.0027Z" fill="url(#paint6_linear_282_55)"/>
<path d="M87.3432 18.6497C85.931 18.0357 84.6569 17.9492 83.4883 18.4456C81.4834 19.312 79.617 21.634 77.7719 27.0784C74.7241 36.1092 75.7005 40.2827 72.2207 44.0551C71.599 44.7339 70.1175 46.3016 67.6494 47.195C65.8992 47.8323 64.3473 47.8869 63.3614 47.8372C64.4235 52.2556 67.5389 55.7157 71.5734 56.8553C75.0255 57.8146 78.0009 56.7311 79.0825 56.2755C81.6222 54.7711 85.7218 51.8194 88.5496 46.6748C90.5194 43.0616 91.327 39.7482 91.6492 33.0179C91.896 28.0592 91.4622 24.3004 90.3843 21.757C89.7627 20.2938 88.7375 19.2647 87.3421 18.6319L87.3432 18.6497ZM86.5475 36.5635C83.8996 40.5017 80.2076 43.394 75.4536 45.2414C77.3074 35.3519 80.2759 29.5566 84.3047 27.8406C85.0195 27.5312 85.8986 27.5872 86.942 28.0084C87.9497 28.4317 88.6054 28.9469 88.8743 29.5738C89.475 30.9847 88.6816 33.3156 86.5475 36.5635Z" fill="url(#paint7_linear_282_55)"/>
<path d="M112.843 70.911C113.004 69.3844 112.682 68.1537 111.839 67.1853C110.402 65.5375 107.606 64.4864 101.847 64.4289C92.3141 64.3232 88.6371 66.5542 83.9713 64.3982C83.1447 64.0179 81.1963 63.096 79.5733 61.0128C78.433 59.5441 77.9015 58.0935 77.6317 57.1453C73.766 59.5122 71.4104 63.5584 71.5821 67.7252C71.7373 71.3039 73.688 73.7965 74.4535 74.6623C76.6581 76.6045 80.7472 79.5973 86.5305 80.6887C90.5789 81.4527 93.9772 81.1836 100.487 79.4124C105.291 78.1155 108.738 76.5404 110.813 74.724C112.003 73.673 112.678 72.3842 112.84 70.8754L112.843 70.911ZM95.533 75.6846C90.9715 74.3971 87.0656 71.7863 83.8321 67.8334C93.8207 66.556 100.26 67.5557 103.134 70.8691C103.652 71.4637 103.88 72.3072 103.784 73.4195C103.705 74.5129 103.41 75.2798 102.9 75.7378C101.744 76.7511 99.2753 76.7163 95.533 75.6846Z" fill="url(#paint8_linear_282_55)"/>
<path d="M70.96 111.279C72.4606 110.959 73.5466 110.271 74.1979 109.18C75.3221 107.312 75.4516 104.324 73.7372 98.8366C70.8827 89.7388 67.6454 86.9463 68.2413 81.8423C68.3497 80.9435 68.6181 78.8038 70.0988 76.6114C71.1349 75.0695 72.3666 74.1232 73.1748 73.5764C69.7144 70.6363 65.1527 69.6523 61.2163 71.113C57.8573 72.3616 56.0976 74.9808 55.4946 75.9797C54.3112 78.6725 52.7504 83.4756 53.4838 89.3055C54.0076 93.3804 55.3178 96.535 59.0072 102.175C61.7345 106.336 64.2918 109.114 66.6633 110.547C68.0334 111.36 69.4593 111.598 70.96 111.279ZM61.06 96.3079C60.8729 91.5708 62.1652 87.0689 64.9171 82.7676C69.2187 91.8526 70.2546 98.2718 67.9903 102.045C67.5823 102.711 66.8412 103.183 65.7492 103.46C64.674 103.719 63.8494 103.678 63.2754 103.337C61.9608 102.556 61.216 100.208 61.0432 96.3267L61.06 96.3079Z" fill="url(#paint9_linear_282_55)"/>
</g>
<defs>
<filter id="filter0_d_282_55" x="0" y="0" width="258" height="135" filterUnits="userSpaceOnUse" color-interpolation-filters="sRGB">
<feFlood flood-opacity="0" result="BackgroundImageFix"/>
<feColorMatrix in="SourceAlpha" type="matrix" values="0 0 0 0 0 0 0 0 0 0 0 0 0 0 0 0 0 0 127 0" result="hardAlpha"/>
<feOffset dx="2" dy="2"/>
<feGaussianBlur stdDeviation="1"/>
<feComposite in2="hardAlpha" operator="out"/>
<feColorMatrix type="matrix" values="0 0 0 0 0 0 0 0 0 0 0 0 0 0 0 0 0 0 0.25 0"/>
<feBlend mode="normal" in2="BackgroundImageFix" result="effect1_dropShadow_282_55"/>
<feBlend mode="normal" in="SourceGraphic" in2="effect1_dropShadow_282_55" result="shape"/>
</filter>
<linearGradient id="paint0_linear_282_55" x1="136.592" y1="78.6032" x2="255.684" y2="69.3817" gradientUnits="userSpaceOnUse">
<stop stop-color="#4161A1"/>
<stop offset="0.605769" stop-color="#585A5E"/>
<stop offset="1" stop-color="#616161"/>
</linearGradient>
<linearGradient id="paint1_linear_282_55" x1="136.592" y1="78.6032" x2="255.684" y2="69.3817" gradientUnits="userSpaceOnUse">
<stop stop-color="#4161A1"/>
<stop offset="0.605769" stop-color="#585A5E"/>
<stop offset="1" stop-color="#616161"/>
</linearGradient>
<linearGradient id="paint2_linear_282_55" x1="136.592" y1="78.6032" x2="255.684" y2="69.3817" gradientUnits="userSpaceOnUse">
<stop stop-color="#4161A1"/>
<stop offset="0.605769" stop-color="#585A5E"/>
<stop offset="1" stop-color="#616161"/>
</linearGradient>
<linearGradient id="paint3_linear_282_55" x1="136.592" y1="78.6032" x2="255.684" y2="69.3817" gradientUnits="userSpaceOnUse">
<stop stop-color="#4161A1"/>
<stop offset="0.605769" stop-color="#585A5E"/>
<stop offset="1" stop-color="#616161"/>
</linearGradient>
<linearGradient id="paint4_linear_282_55" x1="136.592" y1="78.6032" x2="255.684" y2="69.3817" gradientUnits="userSpaceOnUse">
<stop stop-color="#4161A1"/>
<stop offset="0.605769" stop-color="#585A5E"/>
<stop offset="1" stop-color="#616161"/>
</linearGradient>
<linearGradient id="paint5_linear_282_55" x1="51.6274" y1="59.8925" x2="22.8613" y2="78.3464" gradientUnits="userSpaceOnUse">
<stop offset="0.03" stop-color="#395387"/>
<stop offset="0.293269" stop-color="#75A3FF"/>
<stop offset="0.807692" stop-color="#385387"/>
</linearGradient>
<linearGradient id="paint6_linear_282_55" x1="56.925" y1="60.8923" x2="35.8842" y2="27.2997" gradientUnits="userSpaceOnUse">
<stop offset="0.0336538" stop-color="#32466F"/>
<stop offset="0.326923" stop-color="#77A4FF"/>
<stop offset="1" stop-color="#354D7D"/>
</linearGradient>
<linearGradient id="paint7_linear_282_55" x1="83.7795" y1="13.8101" x2="76.2321" y2="63.697" gradientUnits="userSpaceOnUse">
<stop stop-color="#365185"/>
<stop offset="0.528846" stop-color="#6B9DFF"/>
<stop offset="0.927885" stop-color="#395387"/>
</linearGradient>
<linearGradient id="paint8_linear_282_55" x1="71.677" y1="70.0426" x2="113.002" y2="72.0522" gradientUnits="userSpaceOnUse">
<stop offset="0.1875" stop-color="#395387"/>
<stop offset="0.509615" stop-color="#5B8FF5"/>
<stop offset="1" stop-color="#395387"/>
</linearGradient>
<linearGradient id="paint9_linear_282_55" x1="58.6617" y1="79.0304" x2="67.8866" y2="111.42" gradientUnits="userSpaceOnUse">
<stop offset="0.197115" stop-color="#395387"/>
<stop offset="0.598558" stop-color="#6193F5"/>
<stop offset="1" stop-color="#395387"/>
</linearGradient>
</defs>
</svg>
