<svg width="68" height="67" viewBox="0 0 68 67" fill="none" xmlns="http://www.w3.org/2000/svg">
<g filter="url(#filter0_d_370_4)">
<path d="M63.3465 20.2387C62.87 19.3154 62.2276 18.7304 61.4073 18.5079C59.9838 18.1094 58.0248 18.5336 54.7423 20.629C49.3154 24.089 48.0591 26.6868 44.6322 27.2063C44.019 27.2953 42.5759 27.4988 40.8983 26.9217C39.7154 26.5093 38.868 25.8778 38.3712 25.4482C37.0559 28.2149 37.2243 31.3675 38.8669 33.6663C40.2783 35.6419 42.2939 36.3248 43.0539 36.5357C45.0182 36.8217 48.4264 37.0126 52.0985 35.492C54.6666 34.4372 56.4977 33.0269 59.5176 29.6333C61.7496 27.1245 63.1176 24.9714 63.6337 23.1738C63.9268 22.1483 63.823 21.162 63.3587 20.2506L63.3465 20.2387ZM55.3259 29.316C52.2635 30.2662 49.1092 30.23 45.8149 29.1836C50.9819 24.7746 54.989 22.9866 57.848 23.7835C58.3547 23.9241 58.7911 24.3301 59.1573 24.9894C59.5113 25.6368 59.6359 26.1896 59.5067 26.6239C59.2254 27.6252 57.8237 28.5146 55.3258 29.304L55.3259 29.316Z" fill="url(#paint0_linear_370_4)"/>
<path d="M54.5606 58.514C55.2893 57.7741 55.6445 56.989 55.6139 56.1345C55.5546 54.6663 54.5301 52.9166 51.538 50.4474C46.5714 46.3561 43.7034 45.9686 42.163 42.8624C41.894 42.3107 41.2581 41.0034 41.2807 39.2216C41.2952 37.9696 41.6367 36.9678 41.909 36.3638C38.8724 35.9656 35.9317 37.0954 34.2396 39.3714C32.7978 41.3204 32.7658 43.4514 32.7958 44.2337C33.1237 46.1934 34.0034 49.4851 36.5784 52.5111C38.3761 54.6282 40.2759 55.9259 44.4429 57.7602C47.5229 59.1091 49.9955 59.7524 51.8488 59.6782C52.9199 59.6339 53.8198 59.2419 54.5485 58.5141L54.5606 58.514ZM43.4491 53.6989C41.5995 51.0887 40.6616 48.0622 40.6355 44.6195C46.4287 48.1749 49.3666 51.439 49.4853 54.3874C49.5014 54.9169 49.2648 55.4604 48.7392 56.0061C48.2256 56.5397 47.7464 56.8323 47.289 56.8478C46.2541 56.8917 44.97 55.8301 43.4491 53.6989Z" fill="url(#paint1_linear_370_4)"/>
<path d="M15.4515 61.9889C16.3819 62.4513 17.2374 62.5532 18.0417 62.2582C19.4221 61.7421 20.759 60.2392 22.1881 56.629C24.5503 50.6402 24.0351 47.7912 26.5085 45.3648C26.9506 44.9281 28.0023 43.9209 29.6957 43.4025C30.8967 43.0322 31.9441 43.0483 32.6067 43.1155C32.0421 40.0983 30.0614 37.6576 27.3821 36.751C25.089 35.9859 23.0474 36.6154 22.3031 36.8858C20.5405 37.8141 17.6775 39.6656 15.5965 43.04C14.1458 45.4105 13.4885 47.6184 13.0414 52.1481C12.7056 55.4852 12.8694 58.036 13.5087 59.7887C13.8775 60.7971 14.5331 61.5264 15.4515 62.001L15.4515 61.9889ZM16.5998 49.9302C18.5184 47.3636 21.1048 45.5382 24.3709 44.4541C22.7839 51.0629 20.5858 54.8716 17.8128 55.8918C17.3206 56.0761 16.7302 56.0084 16.0416 55.6886C15.3771 55.3686 14.953 54.9986 14.7932 54.5665C14.4367 53.5941 15.0509 52.0486 16.5998 49.9302Z" fill="url(#paint2_linear_370_4)"/>
<path d="M0.0574095 25.8595C-0.103344 26.8839 0.0715763 27.7253 0.606427 28.4074C1.51809 29.5681 3.36601 30.3727 7.24403 30.6081C13.6633 31.0047 16.2169 29.625 19.2868 31.2389C19.8307 31.5237 21.1119 32.2122 22.1342 33.673C22.8523 34.7028 23.1608 35.6997 23.3102 36.3486C25.9956 34.8836 27.721 32.2342 27.7477 29.4171C27.7655 26.9973 26.5363 25.2491 26.0502 24.6389C24.6312 23.2533 21.9785 21.0945 18.1193 20.1608C15.4178 19.5072 13.119 19.5728 8.67237 20.5455C5.3914 21.2566 3.01506 22.2015 1.55519 23.3562C0.717605 24.0247 0.218437 24.8711 0.0575923 25.8835L0.0574095 25.8595ZM11.8828 23.2297C14.9121 24.254 17.4545 26.1487 19.498 28.926C12.7245 29.4469 8.42018 28.5527 6.59677 26.2191C6.26856 25.8003 6.1438 25.2234 6.24647 24.4763C6.33719 23.7413 6.56206 23.234 6.92099 22.9423C7.73468 22.2981 9.39674 22.4059 11.8828 23.2297Z" fill="url(#paint3_linear_370_4)"/>
<path d="M29.6555 0.0540201C28.6335 0.218273 27.8784 0.645337 27.4023 1.35919C26.5809 2.58127 26.3916 4.59305 27.3591 8.35359C28.9714 14.5891 31.057 16.5836 30.4811 20.0067C30.3774 20.6094 30.1234 22.0439 29.0508 23.4725C28.3001 24.4773 27.4379 25.0738 26.8747 25.4151C29.1056 27.5168 32.1454 28.3364 34.8475 27.4853C37.1533 26.7575 38.4284 25.0505 38.8688 24.3971C39.7582 22.6208 40.9739 19.4335 40.679 15.4752C40.4654 12.7081 39.6905 10.5351 37.3975 6.60409C35.7022 3.70377 34.0742 1.7419 32.5254 0.694317C31.6301 0.0992154 30.6775 -0.110235 29.6555 0.0540201ZM35.8139 10.4923C35.7781 13.6947 34.7535 16.6879 32.7524 19.4959C30.1648 13.2197 29.6862 8.85356 31.3407 6.38524C31.6384 5.94962 32.1538 5.65679 32.899 5.50668C33.6323 5.36869 34.1864 5.42467 34.5615 5.67462C35.4206 6.24592 35.8421 7.85581 35.8259 10.4802L35.8139 10.4923Z" fill="url(#paint4_linear_370_4)"/>
</g>
<defs>
<filter id="filter0_d_370_4" x="0" y="0" width="67.7979" height="66.4246" filterUnits="userSpaceOnUse" color-interpolation-filters="sRGB">
<feFlood flood-opacity="0" result="BackgroundImageFix"/>
<feColorMatrix in="SourceAlpha" type="matrix" values="0 0 0 0 0 0 0 0 0 0 0 0 0 0 0 0 0 0 127 0" result="hardAlpha"/>
<feOffset dx="2" dy="2"/>
<feGaussianBlur stdDeviation="1"/>
<feComposite in2="hardAlpha" operator="out"/>
<feColorMatrix type="matrix" values="0 0 0 0 0 0 0 0 0 0 0 0 0 0 0 0 0 0 0.25 0"/>
<feBlend mode="normal" in2="BackgroundImageFix" result="effect1_dropShadow_370_4"/>
<feBlend mode="normal" in="SourceGraphic" in2="effect1_dropShadow_370_4" result="shape"/>
</filter>
<linearGradient id="paint0_linear_370_4" x1="40.9245" y1="35.3827" x2="60.9506" y2="23.9391" gradientUnits="userSpaceOnUse">
<stop offset="0.03" stop-color="#395387"/>
<stop offset="0.293269" stop-color="#75A3FF"/>
<stop offset="0.807692" stop-color="#385387"/>
</linearGradient>
<linearGradient id="paint1_linear_370_4" x1="37.3895" y1="34.5274" x2="50.4462" y2="57.8934" gradientUnits="userSpaceOnUse">
<stop offset="0.0336538" stop-color="#32466F"/>
<stop offset="0.326923" stop-color="#77A4FF"/>
<stop offset="1" stop-color="#354D7D"/>
</linearGradient>
<linearGradient id="paint2_linear_370_4" x1="17.6871" y1="65.3757" x2="24.4907" y2="31.9788" gradientUnits="userSpaceOnUse">
<stop stop-color="#365185"/>
<stop offset="0.528846" stop-color="#6B9DFF"/>
<stop offset="0.927885" stop-color="#395387"/>
</linearGradient>
<linearGradient id="paint3_linear_370_4" x1="27.763" y1="27.8504" x2="-0.0112805" y2="25.0877" gradientUnits="userSpaceOnUse">
<stop offset="0.1875" stop-color="#395387"/>
<stop offset="0.509615" stop-color="#5B8FF5"/>
<stop offset="1" stop-color="#395387"/>
</linearGradient>
<linearGradient id="paint4_linear_370_4" x1="36.8393" y1="22.2308" x2="31.7151" y2="0.0671436" gradientUnits="userSpaceOnUse">
<stop offset="0.197115" stop-color="#395387"/>
<stop offset="0.598558" stop-color="#6193F5"/>
<stop offset="1" stop-color="#395387"/>
</linearGradient>
</defs>
</svg>
