<svg width="447" height="164" viewBox="0 0 447 164" fill="none" xmlns="http://www.w3.org/2000/svg">
<g filter="url(#filter0_d_241_100)">
<g filter="url(#filter1_d_241_100)">
<path d="M27.498 103.721C28.4134 105.294 29.5891 106.26 31.0437 106.577C33.5692 107.148 36.9585 106.232 42.5149 102.276C51.7017 95.7421 53.6692 91.0866 59.6178 89.874C60.6827 89.6641 63.189 89.1801 66.1749 90.041C68.2806 90.6575 69.8191 91.6872 70.7262 92.3947C72.7818 87.4383 72.2078 81.9382 69.1307 78.0624C66.4866 74.7316 62.9003 73.7157 61.5521 73.414C58.0905 73.0878 52.1116 73.056 45.8227 76.0414C41.4237 78.1141 38.3455 80.7435 33.3636 86.9475C29.6813 91.534 27.479 95.4218 26.7356 98.6121C26.3137 100.432 26.5827 102.148 27.4757 103.701L27.498 103.721ZM40.7242 87.1311C45.9972 85.1975 51.5182 84.9814 57.3737 86.5199C48.7258 94.6906 41.8745 98.1734 36.8025 97.0328C35.9038 96.8317 35.1043 96.1602 34.4054 95.0393C33.7287 93.9382 33.4618 92.9822 33.6492 92.211C34.0525 90.4345 36.4257 88.7544 40.7254 87.1521L40.7242 87.1311Z" fill="url(#paint0_linear_241_100)"/>
</g>
<g filter="url(#filter2_d_241_100)">
<path d="M39.4756 35.9868C38.2664 37.3456 37.7147 38.7506 37.8439 40.2426C38.0777 42.8057 40.0249 45.7758 45.4779 49.8299C54.5287 56.5468 59.58 56.9705 62.5499 62.2677C63.0694 63.2089 64.2977 65.4395 64.4161 68.5584C64.5015 70.75 63.9929 72.5326 63.5701 73.6132C68.9174 74.0409 73.9615 71.8038 76.7199 67.6724C79.0693 64.1351 78.9364 60.4046 78.8146 59.0388C78.0674 55.6398 76.2368 49.9594 71.4641 44.8941C68.1317 41.35 64.6933 39.2482 57.2413 36.4088C51.734 34.322 47.3515 33.4158 44.1161 33.7099C42.2464 33.8823 40.707 34.6478 39.4966 35.9856L39.4756 35.9868ZM59.3398 43.4252C62.8067 47.8275 64.7155 53.0386 65.0663 59.0586C54.6171 53.3525 49.1884 47.903 48.7195 42.7558C48.6445 41.8309 49.0102 40.8591 49.8812 39.8579C50.7323 38.8791 51.5448 38.3248 52.3435 38.2571C54.15 38.0885 56.4904 39.8318 59.3398 43.4252Z" fill="url(#paint1_linear_241_100)"/>
</g>
<g filter="url(#filter3_d_241_100)">
<path d="M107.582 26.4421C105.913 25.7157 104.408 25.6133 103.027 26.2007C100.658 27.2258 98.4525 29.9733 96.2724 36.4153C92.671 47.1009 93.8247 52.0392 89.7129 56.5029C88.9782 57.3061 87.2277 59.1611 84.3113 60.2181C82.2433 60.9722 80.4095 61.0368 79.2445 60.978C80.4996 66.2061 84.1808 70.3001 88.9481 71.6486C93.0271 72.7837 96.5429 71.5017 97.8209 70.9626C100.822 69.1825 105.666 65.6899 109.008 59.6026C111.335 55.3274 112.289 51.4067 112.67 43.4433C112.962 37.5759 112.449 33.1283 111.176 30.1189C110.441 28.3876 109.23 27.1698 107.581 26.4211L107.582 26.4421ZM106.642 47.6385C103.513 52.2983 99.1504 55.7206 93.533 57.9066C95.7235 46.2049 99.2311 39.3476 103.992 37.3172C104.836 36.9512 105.875 37.0173 107.108 37.5158C108.299 38.0166 109.073 38.6262 109.391 39.368C110.101 41.0374 109.163 43.7955 106.642 47.6385Z" fill="url(#paint2_linear_241_100)"/>
</g>
<g filter="url(#filter4_d_241_100)">
<path d="M137.713 88.2799C137.903 86.4736 137.523 85.0173 136.526 83.8715C134.829 81.9217 131.525 80.6781 124.72 80.61C113.456 80.4849 109.111 83.1247 103.598 80.5737C102.621 80.1237 100.319 79.0329 98.4009 76.5679C97.0535 74.8301 96.4255 73.1137 96.1066 71.9918C91.5389 74.7924 88.7554 79.58 88.9582 84.5103C89.1416 88.7449 91.4467 91.6941 92.3512 92.7185C94.9562 95.0167 99.7879 98.5579 106.622 99.8493C111.405 100.753 115.421 100.435 123.113 98.3392C128.79 96.8045 132.863 94.9409 135.314 92.7916C136.72 91.548 137.519 90.0231 137.71 88.2378L137.713 88.2799ZM117.259 93.9282C111.869 92.4048 107.254 89.3156 103.433 84.6384C115.236 83.1269 122.845 84.3097 126.241 88.2303C126.853 88.9339 127.122 89.932 127.009 91.248C126.915 92.5418 126.567 93.4492 125.965 93.9912C124.598 95.1902 121.681 95.149 117.259 93.9282Z" fill="url(#paint3_linear_241_100)"/>
</g>
<g filter="url(#filter5_d_241_100)">
<path d="M88.2232 136.045C89.9964 135.667 91.2796 134.853 92.0491 133.562C93.3776 131.351 93.5306 127.815 91.5049 121.323C88.1319 110.558 84.3066 107.254 85.0107 101.214C85.1388 100.151 85.4559 97.619 87.2056 95.0248C88.4299 93.2005 89.8853 92.0808 90.8402 91.4338C86.7514 87.9548 81.3612 86.7905 76.7098 88.5189C72.7408 89.9963 70.6615 93.0954 69.9489 94.2775C68.5505 97.4637 66.7063 103.147 67.573 110.045C68.1919 114.867 69.74 118.599 74.0995 125.273C77.3221 130.196 80.3439 133.484 83.1461 135.179C84.765 136.141 86.45 136.423 88.2232 136.045ZM76.5251 118.331C76.3041 112.725 77.8311 107.399 81.0828 102.309C86.1656 113.059 87.3897 120.654 84.7141 125.119C84.232 125.907 83.3564 126.465 82.0661 126.794C80.7956 127.1 79.8212 127.051 79.1429 126.647C77.5896 125.724 76.7095 122.945 76.5053 118.353L76.5251 118.331Z" fill="url(#paint4_linear_241_100)"/>
</g>
</g>
<path d="M181.312 112.5C176.562 112.5 172.271 111.75 168.438 110.25C164.646 108.75 161.562 106.479 159.188 103.438C156.812 100.354 155.417 96.5 155 91.875L165.562 91.3125C166.062 95.1875 167.646 98.1458 170.312 100.188C172.979 102.188 176.562 103.188 181.062 103.188C185.729 103.188 189.396 102.229 192.062 100.312C194.771 98.3542 196.125 95.9167 196.125 93C196.125 90.5 195.229 88.5 193.438 87C191.646 85.4583 189.208 84.3333 186.125 83.625L175.312 81.125C169.146 79.625 164.479 77.3125 161.312 74.1875C158.188 71.0625 156.625 67.0833 156.625 62.25C156.625 58.4583 157.667 55.1042 159.75 52.1875C161.833 49.2292 164.708 46.9167 168.375 45.25C172.042 43.5833 176.25 42.75 181 42.75C185.625 42.75 189.729 43.5833 193.312 45.25C196.896 46.9167 199.75 49.2708 201.875 52.3125C204.042 55.3125 205.292 58.8958 205.625 63.0625L195.25 63.625C195 60.3333 193.646 57.5833 191.188 55.375C188.729 53.125 185.333 52 181 52C176.958 52 173.688 52.9792 171.188 54.9375C168.688 56.8958 167.438 59.2917 167.438 62.125C167.438 64.625 168.354 66.6458 170.188 68.1875C172.021 69.7292 174.625 70.8958 178 71.6875L188.625 74.1875C194.958 75.6875 199.604 77.9583 202.562 81C205.562 84 207.062 87.875 207.062 92.625C207.062 96.7083 205.938 100.25 203.688 103.25C201.479 106.208 198.417 108.5 194.5 110.125C190.625 111.708 186.229 112.5 181.312 112.5Z" fill="url(#paint5_linear_241_100)"/>
<path d="M240.375 112.125C236 112.125 232.062 111.354 228.562 109.812C225.062 108.271 222.292 106 220.25 103C218.208 99.9583 217.188 96.2292 217.188 91.8125C217.188 87.9792 217.938 84.8542 219.438 82.4375C220.938 80.0208 222.938 78.1458 225.438 76.8125C227.979 75.4375 230.833 74.3958 234 73.6875C237.167 72.9792 240.396 72.4167 243.688 72C247.854 71.4167 251.167 70.9792 253.625 70.6875C256.125 70.3958 257.896 69.9167 258.938 69.25C260.021 68.5417 260.562 67.3542 260.562 65.6875V65.125C260.562 62.5833 260 60.375 258.875 58.5C257.75 56.625 256.083 55.1458 253.875 54.0625C251.708 52.9792 249.062 52.4375 245.938 52.4375C242.854 52.4375 240.125 52.9583 237.75 54C235.375 55.0417 233.479 56.4167 232.062 58.125C230.688 59.8333 229.833 61.7083 229.5 63.75L218.688 63C219.271 58.9167 220.792 55.3958 223.25 52.4375C225.708 49.4375 228.875 47.125 232.75 45.5C236.667 43.8333 241.042 43 245.875 43C249.375 43 252.667 43.4583 255.75 44.375C258.833 45.2917 261.521 46.6875 263.812 48.5625C266.146 50.4375 267.958 52.7708 269.25 55.5625C270.583 58.3542 271.25 61.625 271.25 65.375V111H260.625V101.625H260.25C259.458 103.208 258.271 104.812 256.688 106.438C255.104 108.062 252.979 109.417 250.312 110.5C247.688 111.583 244.375 112.125 240.375 112.125ZM242 102.562C246.292 102.562 249.812 101.771 252.562 100.188C255.312 98.6042 257.333 96.5625 258.625 94.0625C259.917 91.5208 260.562 88.8125 260.562 85.9375V77.375C260.146 77.7917 259.333 78.1875 258.125 78.5625C256.917 78.8958 255.458 79.2292 253.75 79.5625C252.083 79.8542 250.312 80.1458 248.438 80.4375C246.604 80.7292 244.854 80.9792 243.188 81.1875C240.604 81.5208 238.167 82.1042 235.875 82.9375C233.583 83.7292 231.729 84.875 230.312 86.375C228.896 87.875 228.188 89.8958 228.188 92.4375C228.188 94.5625 228.75 96.375 229.875 97.875C231 99.375 232.604 100.542 234.688 101.375C236.771 102.167 239.208 102.562 242 102.562Z" fill="url(#paint6_linear_241_100)"/>
<path d="M298.625 71.625V111H287.875V17.875H298.625V60.375H295.688C297.854 54.2917 300.875 49.875 304.75 47.125C308.625 44.375 313.167 43 318.375 43C322.875 43 326.938 43.9792 330.562 45.9375C334.229 47.8542 337.125 50.75 339.25 54.625C341.417 58.5 342.5 63.375 342.5 69.25V111H331.75V70.0625C331.75 64.3958 330.375 60.1042 327.625 57.1875C324.875 54.2708 321.021 52.8125 316.062 52.8125C312.854 52.8125 309.917 53.4792 307.25 54.8125C304.625 56.1458 302.521 58.2083 300.938 61C299.396 63.75 298.625 67.2917 298.625 71.625Z" fill="url(#paint7_linear_241_100)"/>
<path d="M359.125 111V44.125H369.875V111H359.125ZM364.562 31.5625C362.521 31.5625 360.771 30.8542 359.312 29.4375C357.896 28.0208 357.188 26.3125 357.188 24.3125C357.188 22.2708 357.896 20.5417 359.312 19.125C360.771 17.7083 362.5 17 364.5 17C366.583 17 368.333 17.7083 369.75 19.125C371.208 20.5417 371.938 22.2708 371.938 24.3125C371.938 26.3125 371.208 28.0208 369.75 29.4375C368.333 30.8542 366.604 31.5625 364.562 31.5625Z" fill="url(#paint8_linear_241_100)"/>
<path d="M418.125 112.312C414.917 112.312 412 111.833 409.375 110.875C406.792 109.875 404.5 108.521 402.5 106.812C400.5 105.062 398.792 103.062 397.375 100.812H397V111H386.5V17.875H397.25V54.1875H397.562C398.854 52.0208 400.479 50.1042 402.438 48.4375C404.396 46.7292 406.688 45.3958 409.312 44.4375C411.979 43.4792 414.917 43 418.125 43C423.875 43 428.917 44.4375 433.25 47.3125C437.583 50.1875 440.938 54.2292 443.312 59.4375C445.729 64.6458 446.938 70.7083 446.938 77.625C446.938 84.5 445.729 90.5417 443.312 95.75C440.938 100.958 437.583 105.021 433.25 107.938C428.917 110.854 423.875 112.312 418.125 112.312ZM416.5 102.625C420.458 102.625 423.896 101.646 426.812 99.6875C429.729 97.6875 432 94.8333 433.625 91.125C435.25 87.375 436.062 82.8542 436.062 77.5625C436.062 72.2708 435.25 67.7708 433.625 64.0625C432 60.3542 429.729 57.5208 426.812 55.5625C423.896 53.6042 420.458 52.625 416.5 52.625C412.375 52.625 408.812 53.6667 405.812 55.75C402.812 57.7917 400.521 60.6875 398.938 64.4375C397.354 68.1458 396.562 72.5208 396.562 77.5625C396.562 82.5625 397.354 86.9583 398.938 90.75C400.562 94.5 402.854 97.4167 405.812 99.5C408.812 101.583 412.375 102.625 416.5 102.625Z" fill="url(#paint9_linear_241_100)"/>
<defs>
<filter id="filter0_d_241_100" x="25.5404" y="25.8203" width="113.22" height="112.386" filterUnits="userSpaceOnUse" color-interpolation-filters="sRGB">
<feFlood flood-opacity="0" result="BackgroundImageFix"/>
<feColorMatrix in="SourceAlpha" type="matrix" values="0 0 0 0 0 0 0 0 0 0 0 0 0 0 0 0 0 0 127 0" result="hardAlpha"/>
<feOffset dy="1"/>
<feGaussianBlur stdDeviation="0.5"/>
<feComposite in2="hardAlpha" operator="out"/>
<feColorMatrix type="matrix" values="0 0 0 0 0 0 0 0 0 0 0 0 0 0 0 0 0 0 0.35 0"/>
<feBlend mode="normal" in2="BackgroundImageFix" result="effect1_dropShadow_241_100"/>
<feBlend mode="normal" in="SourceGraphic" in2="effect1_dropShadow_241_100" result="shape"/>
</filter>
<filter id="filter1_d_241_100" x="26.5404" y="73.267" width="49.3986" height="37.4647" filterUnits="userSpaceOnUse" color-interpolation-filters="sRGB">
<feFlood flood-opacity="0" result="BackgroundImageFix"/>
<feColorMatrix in="SourceAlpha" type="matrix" values="0 0 0 0 0 0 0 0 0 0 0 0 0 0 0 0 0 0 127 0" result="hardAlpha"/>
<feOffset dx="2" dy="2"/>
<feGaussianBlur stdDeviation="1"/>
<feComposite in2="hardAlpha" operator="out"/>
<feColorMatrix type="matrix" values="0 0 0 0 0 0 0 0 0 0 0 0 0 0 0 0 0 0 0.25 0"/>
<feBlend mode="normal" in2="BackgroundImageFix" result="effect1_dropShadow_241_100"/>
<feBlend mode="normal" in="SourceGraphic" in2="effect1_dropShadow_241_100" result="shape"/>
</filter>
<filter id="filter2_d_241_100" x="37.8254" y="33.6558" width="45.0447" height="44.0093" filterUnits="userSpaceOnUse" color-interpolation-filters="sRGB">
<feFlood flood-opacity="0" result="BackgroundImageFix"/>
<feColorMatrix in="SourceAlpha" type="matrix" values="0 0 0 0 0 0 0 0 0 0 0 0 0 0 0 0 0 0 127 0" result="hardAlpha"/>
<feOffset dx="2" dy="2"/>
<feGaussianBlur stdDeviation="1"/>
<feComposite in2="hardAlpha" operator="out"/>
<feColorMatrix type="matrix" values="0 0 0 0 0 0 0 0 0 0 0 0 0 0 0 0 0 0 0.25 0"/>
<feBlend mode="normal" in2="BackgroundImageFix" result="effect1_dropShadow_241_100"/>
<feBlend mode="normal" in="SourceGraphic" in2="effect1_dropShadow_241_100" result="shape"/>
</filter>
<filter id="filter3_d_241_100" x="79.2445" y="25.8203" width="37.5051" height="50.2831" filterUnits="userSpaceOnUse" color-interpolation-filters="sRGB">
<feFlood flood-opacity="0" result="BackgroundImageFix"/>
<feColorMatrix in="SourceAlpha" type="matrix" values="0 0 0 0 0 0 0 0 0 0 0 0 0 0 0 0 0 0 127 0" result="hardAlpha"/>
<feOffset dx="2" dy="2"/>
<feGaussianBlur stdDeviation="1"/>
<feComposite in2="hardAlpha" operator="out"/>
<feColorMatrix type="matrix" values="0 0 0 0 0 0 0 0 0 0 0 0 0 0 0 0 0 0 0.25 0"/>
<feBlend mode="normal" in2="BackgroundImageFix" result="effect1_dropShadow_241_100"/>
<feBlend mode="normal" in="SourceGraphic" in2="effect1_dropShadow_241_100" result="shape"/>
</filter>
<filter id="filter4_d_241_100" x="88.9479" y="71.9918" width="52.8122" height="32.3339" filterUnits="userSpaceOnUse" color-interpolation-filters="sRGB">
<feFlood flood-opacity="0" result="BackgroundImageFix"/>
<feColorMatrix in="SourceAlpha" type="matrix" values="0 0 0 0 0 0 0 0 0 0 0 0 0 0 0 0 0 0 127 0" result="hardAlpha"/>
<feOffset dx="2" dy="2"/>
<feGaussianBlur stdDeviation="1"/>
<feComposite in2="hardAlpha" operator="out"/>
<feColorMatrix type="matrix" values="0 0 0 0 0 0 0 0 0 0 0 0 0 0 0 0 0 0 0.25 0"/>
<feBlend mode="normal" in2="BackgroundImageFix" result="effect1_dropShadow_241_100"/>
<feBlend mode="normal" in="SourceGraphic" in2="effect1_dropShadow_241_100" result="shape"/>
</filter>
<filter id="filter5_d_241_100" x="67.35" y="87.7282" width="29.6891" height="52.4784" filterUnits="userSpaceOnUse" color-interpolation-filters="sRGB">
<feFlood flood-opacity="0" result="BackgroundImageFix"/>
<feColorMatrix in="SourceAlpha" type="matrix" values="0 0 0 0 0 0 0 0 0 0 0 0 0 0 0 0 0 0 127 0" result="hardAlpha"/>
<feOffset dx="2" dy="2"/>
<feGaussianBlur stdDeviation="1"/>
<feComposite in2="hardAlpha" operator="out"/>
<feColorMatrix type="matrix" values="0 0 0 0 0 0 0 0 0 0 0 0 0 0 0 0 0 0 0.25 0"/>
<feBlend mode="normal" in2="BackgroundImageFix" result="effect1_dropShadow_241_100"/>
<feBlend mode="normal" in="SourceGraphic" in2="effect1_dropShadow_241_100" result="shape"/>
</filter>
<linearGradient id="paint0_linear_241_100" x1="65.3793" y1="75.2424" x2="31.3614" y2="97.0355" gradientUnits="userSpaceOnUse">
<stop offset="0.03" stop-color="#395387"/>
<stop offset="0.293269" stop-color="#75A3FF"/>
<stop offset="0.807692" stop-color="#385387"/>
</linearGradient>
<linearGradient id="paint1_linear_241_100" x1="71.639" y1="76.4253" x2="46.7279" y2="36.7078" gradientUnits="userSpaceOnUse">
<stop offset="0.0336538" stop-color="#2562DC"/>
<stop offset="0.326923" stop-color="#77A4FF"/>
<stop offset="1" stop-color="#20499C"/>
</linearGradient>
<linearGradient id="paint2_linear_241_100" x1="103.371" y1="20.7157" x2="94.429" y2="79.7404" gradientUnits="userSpaceOnUse">
<stop stop-color="#365185"/>
<stop offset="0.528846" stop-color="#7C96CA"/>
<stop offset="0.927885" stop-color="#12357A"/>
</linearGradient>
<linearGradient id="paint3_linear_241_100" x1="89.0704" y1="87.2523" x2="137.901" y2="89.6238" gradientUnits="userSpaceOnUse">
<stop offset="0.1875" stop-color="#395387"/>
<stop offset="0.509615" stop-color="#5B8FF5"/>
<stop offset="1" stop-color="#395387"/>
</linearGradient>
<linearGradient id="paint4_linear_241_100" x1="73.6912" y1="97.8871" x2="84.6192" y2="136.204" gradientUnits="userSpaceOnUse">
<stop offset="0.197115" stop-color="#395387"/>
<stop offset="0.598558" stop-color="#6193F5"/>
<stop offset="1" stop-color="#395387"/>
</linearGradient>
<linearGradient id="paint5_linear_241_100" x1="155" y1="64.75" x2="446.938" y2="64.75" gradientUnits="userSpaceOnUse">
<stop stop-color="#4E74C2"/>
<stop offset="0.288462" stop-color="#664541"/>
<stop offset="0.408654" stop-color="#FFC9C7"/>
<stop offset="0.625" stop-color="#50575E"/>
</linearGradient>
<linearGradient id="paint6_linear_241_100" x1="155" y1="64.75" x2="446.938" y2="64.75" gradientUnits="userSpaceOnUse">
<stop stop-color="#4E74C2"/>
<stop offset="0.288462" stop-color="#664541"/>
<stop offset="0.408654" stop-color="#FFC9C7"/>
<stop offset="0.625" stop-color="#50575E"/>
</linearGradient>
<linearGradient id="paint7_linear_241_100" x1="155" y1="64.75" x2="446.938" y2="64.75" gradientUnits="userSpaceOnUse">
<stop stop-color="#4E74C2"/>
<stop offset="0.288462" stop-color="#664541"/>
<stop offset="0.408654" stop-color="#FFC9C7"/>
<stop offset="0.625" stop-color="#50575E"/>
</linearGradient>
<linearGradient id="paint8_linear_241_100" x1="155" y1="64.75" x2="446.938" y2="64.75" gradientUnits="userSpaceOnUse">
<stop stop-color="#4E74C2"/>
<stop offset="0.288462" stop-color="#664541"/>
<stop offset="0.408654" stop-color="#FFC9C7"/>
<stop offset="0.625" stop-color="#50575E"/>
</linearGradient>
<linearGradient id="paint9_linear_241_100" x1="155" y1="64.75" x2="446.938" y2="64.75" gradientUnits="userSpaceOnUse">
<stop stop-color="#4E74C2"/>
<stop offset="0.288462" stop-color="#664541"/>
<stop offset="0.408654" stop-color="#FFC9C7"/>
<stop offset="0.625" stop-color="#50575E"/>
</linearGradient>
</defs>
</svg>
